<svg width="160" height="54" viewBox="0 0 160 54" fill="none" xmlns="http://www.w3.org/2000/svg">
<g clip-path="url(#clip0_11376_13455)">
<path d="M102.736 33.8001H98.3119C98.001 33.8001 97.7495 33.5471 97.7495 33.2361V11.6183C97.7495 11.3066 98.0017 11.0543 98.3119 11.0543H102.736C103.047 11.0543 103.299 11.3073 103.299 11.6183V12.0995C103.299 12.6068 103.907 12.8477 104.264 12.4885C105.682 11.0635 107.461 10.3507 109.602 10.3507C112.296 10.3507 114.431 11.1712 116.013 12.8094C117.592 14.4491 118.383 16.7455 118.383 19.6981V33.2353C118.383 33.5471 118.131 33.7994 117.821 33.7994H113.397C113.086 33.7994 112.835 33.5464 112.835 33.2353V20.6164C112.835 19.0321 112.431 17.8162 111.623 16.9694C110.815 16.1234 109.656 15.6997 108.148 15.6997C106.64 15.6997 105.499 16.1596 104.619 17.0779C103.738 17.9962 103.299 19.1766 103.299 20.6164V33.2353C103.299 33.5471 103.047 33.7994 102.737 33.7994L102.736 33.8001Z" fill="#FF4F08"/>
<path d="M132.121 10.3507C135.677 10.3507 138.55 11.6297 140.742 14.1869C142.825 16.6201 143.821 19.5904 143.728 23.0979C143.72 23.4011 143.466 23.642 143.163 23.642H126.733C126.38 23.642 126.114 23.9651 126.176 24.3123C126.418 25.6629 127.026 26.7718 128 27.6405C129.132 28.6495 130.523 29.1533 132.176 29.1533C134.199 29.1533 135.814 28.3321 137.019 26.6889C137.126 26.5429 137.293 26.4522 137.473 26.4522H142.344C142.748 26.4522 143.02 26.8681 142.864 27.2416C142.014 29.2617 140.705 30.9353 138.937 32.2604C136.944 33.7554 134.69 34.5023 132.177 34.5023C128.764 34.5023 125.971 33.3593 123.799 31.0721C121.626 28.7848 120.54 25.9123 120.54 22.4538C120.54 18.9952 121.671 16.2049 123.934 13.8631C126.197 11.522 128.925 10.3507 132.122 10.3507H132.121ZM127.371 19.8604H136.92C137.334 19.8604 137.617 19.4218 137.43 19.0519C137.003 18.2116 136.419 17.481 135.677 16.8617C134.708 16.0511 133.54 15.6458 132.176 15.6458C130.812 15.6458 129.679 16.0426 128.674 16.8348C127.898 17.4456 127.294 18.1853 126.86 19.0533C126.675 19.4232 126.957 19.8604 127.371 19.8604Z" fill="#FF4F08"/>
<path d="M154.587 24.9394C154.587 27.1367 155.52 28.235 157.388 28.235H159.25C159.561 28.235 159.812 28.488 159.812 28.799V33.2354C159.812 33.5471 159.56 33.7994 159.25 33.7994H156.096C154.049 33.7994 152.36 33.161 151.032 31.8813C149.702 30.603 149.039 28.9903 149.039 27.046V17.1827C149.039 16.871 148.786 16.6187 148.476 16.6187H145.13C144.819 16.6187 144.568 16.3658 144.568 16.0547V11.6021C144.568 11.308 144.793 11.0565 145.086 11.0402C148.634 10.8439 150.805 8.59206 151.599 4.28326C151.648 4.01329 151.879 3.81348 152.152 3.81348H156.622C156.969 3.81348 157.238 4.12596 157.178 4.46819C156.762 6.82277 156.015 8.71819 154.935 10.1559C154.656 10.5265 154.922 11.0536 155.384 11.0536H159.252C159.563 11.0536 159.815 11.3066 159.815 11.6177V16.054C159.815 16.3658 159.562 16.618 159.252 16.618H155.152C154.841 16.618 154.59 16.871 154.59 17.182V24.9387L154.587 24.9394Z" fill="#FF4F08"/>
<path fill-rule="evenodd" clip-rule="evenodd" d="M63.6094 20.3097C61.492 19.6982 60.004 19.1313 59.1428 18.6098C58.2815 18.089 57.8512 17.503 57.8512 16.8561C57.8512 16.353 58.102 15.9208 58.6044 15.5608C59.1067 15.2016 59.7348 15.0209 60.488 15.0209C61.492 15.0209 62.3179 15.2732 62.963 15.7762C63.3791 16.1015 63.6758 16.4706 63.8532 16.8837C64.0447 17.3294 64.4898 17.6114 64.9737 17.6114H68.1157C68.955 17.6114 69.5563 16.7838 69.285 15.9881C68.7975 14.5603 67.9998 13.3572 66.8913 12.3772C65.3849 11.0473 63.2865 10.3805 60.5954 10.3805C58.3352 10.3805 56.3527 11.0104 54.6492 12.2695C52.9451 13.5287 52.0923 15.2193 52.0923 17.3422C52.0923 20.7957 54.6217 23.2063 59.6797 24.5731C60.7558 24.8969 61.5365 25.14 62.0204 25.3022C62.5044 25.4638 62.9969 25.7338 63.4999 26.1114C64.0016 26.4891 64.2531 26.9305 64.2531 27.4336C64.2531 28.0805 64.0114 28.6205 63.5268 29.0527C63.0421 29.4842 62.3878 29.6996 61.5633 29.6996C59.9009 29.6996 58.7542 29.0782 58.1218 27.8332C57.9127 27.4216 57.4895 27.1629 57.0288 27.1629H53.7117C52.8716 27.1629 52.2873 27.9856 52.5431 28.7877C52.9543 30.0737 53.682 31.2407 54.7284 32.2894C56.1993 33.7661 58.3338 34.5023 61.1323 34.5023C63.6426 34.5023 65.7326 33.8362 67.4007 32.5055C69.0688 31.1749 69.9025 29.3751 69.9025 27.1084C69.9025 23.8709 67.8041 21.6042 63.6066 20.309L63.6094 20.3097Z" fill="#FF4F08"/>
<path fill-rule="evenodd" clip-rule="evenodd" d="M94.4615 10.9736H90.5516C90.086 10.9736 89.7087 11.352 89.7087 11.819V13.0554C89.7087 13.161 89.5759 13.2056 89.5123 13.1213C88.9054 12.3157 88.0385 11.6624 86.9102 11.1614C85.6546 10.6038 84.2373 10.343 82.659 10.3792C79.4308 10.416 76.7672 11.5851 74.6688 13.8873C72.5697 16.1901 71.5205 19.1045 71.5205 22.6296C71.5551 26.1916 72.6587 29.0613 74.8299 31.2373C77.0004 33.414 79.6279 34.5017 82.7134 34.5017C84.5065 34.5017 86.0496 34.1325 87.3411 33.3956C88.3981 32.7919 89.1188 32.1705 89.5031 31.5299C89.5618 31.4321 89.7094 31.4711 89.7094 31.5845V32.9541C89.7094 33.4211 90.0867 33.7995 90.5523 33.7995H94.4622C94.9278 33.7995 95.3051 33.4211 95.3051 32.9541V11.8197C95.3051 11.3527 94.9278 10.9744 94.4622 10.9744L94.4615 10.9736ZM89.5469 22.8457C89.5469 24.4648 88.9556 25.8678 87.7714 27.0553C86.6692 28.1607 85.3339 28.7509 83.7647 28.8267C82.1729 28.904 80.5733 28.3754 79.3715 27.3253C77.9754 26.1051 77.278 24.469 77.278 22.4135C77.278 20.5783 77.8609 19.0591 79.0267 17.8538C80.191 16.6486 81.6543 16.0456 83.4114 16.0456C85.1686 16.0456 86.6311 16.6209 87.7968 17.7724C88.9626 18.9245 89.5455 20.3629 89.5455 22.0897V22.845L89.5469 22.8457Z" fill="#FF4F08"/>
<path fill-rule="evenodd" clip-rule="evenodd" d="M40.014 10.9517H38.3756C34.5695 10.9517 32.3948 13.6442 31.4374 15.2449C31.3809 15.3398 31.2361 15.298 31.2361 15.1875V11.797C31.2361 11.33 30.8588 10.9517 30.3932 10.9517H26.556C26.0904 10.9517 25.7131 11.33 25.7131 11.797V32.9563C25.7131 33.4232 26.0904 33.8016 26.556 33.8016H30.3932C30.8588 33.8016 31.2361 33.4232 31.2361 32.9563V22.4531C31.2361 16.5005 40.014 16.4062 40.014 16.4062C40.4796 16.4062 40.8569 16.0278 40.8569 15.5609V11.797C40.8569 11.33 40.4796 10.9517 40.014 10.9517Z" fill="#FF4F08"/>
<path fill-rule="evenodd" clip-rule="evenodd" d="M12.7774 10.3919C11.0909 10.3557 9.58384 10.6888 8.25769 11.3902C7.03751 12.0343 6.06038 12.7783 5.32559 13.6201C5.25988 13.6959 5.13624 13.6513 5.13624 13.5507V7.57318V0.787928C5.13624 0.43081 4.89813 0.132502 4.57313 0.036137C4.56182 0.0141714 4.54275 0 4.51025 0H0.379167C-0.0546425 0 -0.406494 0.352867 -0.406494 0.787928V32.9676C-0.406494 33.4345 -0.0292076 33.8129 0.436396 33.8129H4.29264C4.75824 33.8129 5.13553 33.4345 5.13553 32.9676V31.2975C5.13553 31.1869 5.27683 31.1458 5.33689 31.2387C5.85831 32.0386 6.66941 32.7621 7.7723 33.4083C9.0271 34.1452 10.5341 34.5144 12.292 34.5144C15.3774 34.5144 18.0135 33.3637 20.2023 31.0608C22.3904 28.7587 23.4855 25.8627 23.4855 22.3723C23.5201 18.8111 22.507 15.9329 20.4453 13.7377C18.3816 11.544 15.826 10.4287 12.7766 10.3919H12.7774ZM15.9794 27.1481C14.8129 28.3541 13.3334 28.9564 11.5395 28.9564C9.85303 28.9564 8.39122 28.3718 7.15409 27.2027C5.91695 26.0342 5.29803 24.5852 5.29803 22.8584V22.1569C5.29803 20.3586 5.91624 18.8741 7.15409 17.7043C8.39193 16.5352 9.85374 15.9506 11.5395 15.9506C13.3327 15.9506 14.8129 16.5444 15.9794 17.7312C17.1451 18.9181 17.728 20.484 17.728 22.4262C17.728 24.3684 17.1444 25.9435 15.9794 27.1481Z" fill="#FF4F08"/>
<path fill-rule="evenodd" clip-rule="evenodd" d="M50.3646 11.7977C50.3646 11.3308 49.9873 10.9524 49.5217 10.9524H44.7138V10.9545H43.11C42.6444 10.9545 42.2671 11.3329 42.2671 11.7998V15.5588C42.2671 16.0257 42.6444 16.4041 43.11 16.4041H43.8709C44.3365 16.4041 44.7138 16.7825 44.7138 17.2494V32.9563C44.7138 33.4232 45.0911 33.8016 45.5567 33.8016H49.5217C49.9873 33.8016 50.3646 33.4232 50.3646 32.9563V32.5134H50.3823V15.9556H50.3646V11.797V11.7977Z" fill="#FF4F08"/>
<path d="M46.7955 7.15938C48.7668 7.15938 50.3649 5.55669 50.3649 3.57969C50.3649 1.60268 48.7668 0 46.7955 0C44.8241 0 43.2261 1.60268 43.2261 3.57969C43.2261 5.55669 44.8241 7.15938 46.7955 7.15938Z" fill="#FF4F08"/>
<path fill-rule="evenodd" clip-rule="evenodd" d="M152.247 42.4865H150.967C150.8 42.4865 150.665 42.6218 150.665 42.7891V43.2312C150.665 43.2688 150.624 43.2794 150.595 43.2546C150.344 43.0385 149.507 42.0798 147.456 42.4504C146.599 42.6048 145.876 43.0753 145.464 43.5288C144.713 44.3529 144.338 45.3959 144.338 46.6571C144.35 47.9319 144.745 48.9586 145.522 49.7373C146.007 50.2241 146.768 50.6981 147.766 50.8235C149.269 51.0127 150.455 50.071 150.593 49.8422C150.614 49.8074 150.666 49.8209 150.666 49.862V50.3523C150.666 50.5195 150.801 50.6549 150.968 50.6549H152.247C152.414 50.6549 152.549 50.5195 152.549 50.3523V42.7898C152.549 42.6226 152.414 42.4872 152.247 42.4872L152.247 42.4865ZM150.607 46.7344C150.607 47.3133 150.395 47.8157 149.972 48.2408C149.578 48.6362 149.1 48.8473 148.539 48.875C147.969 48.9026 147.397 48.7134 146.967 48.3379C146.467 47.9014 146.218 47.3161 146.218 46.5806C146.218 45.9238 146.426 45.3803 146.844 44.9488C147.261 44.5173 147.784 44.3019 148.413 44.3019C149.042 44.3019 149.565 44.5081 149.982 44.9197C150.399 45.3321 150.608 45.8465 150.608 46.4644V46.7344H150.607Z" fill="#979797"/>
<path d="M110.393 43.1313C109.785 42.5411 108.983 42.2456 107.989 42.2456C106.995 42.2456 106.155 42.5779 105.553 43.2433C105.472 43.3318 105.331 43.3297 105.255 43.2369C104.718 42.5765 104.001 42.2463 103.102 42.2463C103.035 42.2463 102.969 42.2491 102.903 42.2534C102.199 42.2697 101.609 42.517 101.137 42.9974C101.015 43.1228 100.805 43.0385 100.805 42.8614V42.6934C100.805 42.585 100.718 42.4964 100.611 42.4964H99.0871C98.9798 42.4964 98.8936 42.5843 98.8936 42.6934V50.2298C98.8936 50.2475 98.8964 50.2638 98.9006 50.2801V50.589C98.9006 50.6995 98.9896 50.7888 99.0999 50.7888H100.723C100.834 50.7888 100.923 50.6995 100.923 50.589V45.9656C100.923 45.4278 101.063 45.0012 101.345 44.6859C101.626 44.3713 102.015 44.2133 102.512 44.2133C103.01 44.2133 103.398 44.3642 103.68 44.6661C103.961 44.9679 104.102 45.3817 104.102 45.9061V50.5883C104.102 50.6988 104.191 50.7881 104.301 50.7881H105.925C106.035 50.7881 106.124 50.6988 106.124 50.5883V45.9061C106.124 45.381 106.268 44.9679 106.556 44.6661C106.843 44.3642 107.23 44.2133 107.714 44.2133C108.198 44.2133 108.597 44.3607 108.872 44.6562C109.147 44.9516 109.284 45.3683 109.284 45.9061V50.5883C109.284 50.6988 109.374 50.7881 109.484 50.7881H111.107C111.218 50.7881 111.307 50.6988 111.307 50.5883V45.6701C111.307 44.5676 111.002 43.7216 110.394 43.1306L110.393 43.1313Z" fill="#979797"/>
<path d="M132.092 42.3469C133.35 42.3469 134.366 42.7997 135.141 43.7038C135.878 44.5647 136.231 45.6148 136.198 46.8555C136.195 46.9625 136.105 47.0483 135.998 47.0483H130.186C130.061 47.0483 129.967 47.1624 129.989 47.2856C130.074 47.7632 130.289 48.1558 130.634 48.4626C131.034 48.8197 131.526 48.9975 132.111 48.9975C132.827 48.9975 133.398 48.707 133.824 48.126C133.863 48.0743 133.921 48.0424 133.985 48.0424H135.707C135.85 48.0424 135.947 48.1898 135.891 48.3216C135.591 49.0358 135.127 49.6282 134.502 50.0965C133.797 50.6251 133 50.8894 132.11 50.8894C130.904 50.8894 129.915 50.4848 129.147 49.6764C128.378 48.8672 127.994 47.8511 127.994 46.6281C127.994 45.4051 128.394 44.4181 129.195 43.5898C129.995 42.7614 130.96 42.3476 132.091 42.3476L132.092 42.3469ZM130.411 45.7105H133.789C133.935 45.7105 134.036 45.5553 133.969 45.4249C133.819 45.1273 133.612 44.8694 133.35 44.6505C133.007 44.3635 132.594 44.2204 132.111 44.2204C131.629 44.2204 131.228 44.3607 130.873 44.6406C130.598 44.8567 130.384 45.1181 130.231 45.4257C130.165 45.5567 130.266 45.7112 130.412 45.7112L130.411 45.7105Z" fill="#979797"/>
<path d="M93.4632 42.3108C94.7265 42.3108 95.7467 42.765 96.5253 43.6733C97.265 44.5378 97.619 45.5929 97.5858 46.8385C97.583 46.9462 97.4925 47.032 97.3851 47.032H91.5492C91.4241 47.032 91.3295 47.1467 91.3514 47.27C91.4369 47.7497 91.6531 48.1437 91.9993 48.4519C92.4013 48.8105 92.8951 48.989 93.4823 48.989C94.2008 48.989 94.7745 48.6971 95.2027 48.1132C95.2408 48.0615 95.3002 48.0289 95.3638 48.0289H97.0933C97.2368 48.0289 97.3336 48.1763 97.2778 48.3095C96.9761 49.0273 96.5112 49.6218 95.8831 50.0923C95.1751 50.623 94.3746 50.8887 93.4816 50.8887C92.2692 50.8887 91.2772 50.4827 90.5057 49.67C89.7334 48.8579 89.3477 47.8369 89.3477 46.6089C89.3477 45.381 89.7497 44.389 90.553 43.5578C91.357 42.726 92.3264 42.3101 93.4618 42.3101L93.4632 42.3108ZM91.7753 45.6885H95.1673C95.3143 45.6885 95.4146 45.5326 95.3482 45.4015C95.197 45.1032 94.9893 44.8439 94.7258 44.6235C94.3817 44.3359 93.9669 44.1913 93.4823 44.1913C92.9976 44.1913 92.5956 44.3323 92.2381 44.6136C91.9625 44.8304 91.7477 45.0933 91.5937 45.4015C91.528 45.5333 91.6283 45.6878 91.7753 45.6878V45.6885Z" fill="#979797"/>
<path fill-rule="evenodd" clip-rule="evenodd" d="M141.18 45.8345C140.422 45.6155 139.889 45.4129 139.581 45.2258C139.273 45.0394 139.119 44.8297 139.119 44.598C139.119 44.418 139.209 44.2636 139.389 44.1346C139.569 44.0056 139.794 43.9412 140.063 43.9412C140.423 43.9412 140.718 44.0311 140.949 44.2118C141.098 44.328 141.204 44.4605 141.268 44.6086C141.336 44.7681 141.496 44.8687 141.669 44.8687H142.794C143.094 44.8687 143.31 44.5725 143.212 44.2876C143.038 43.7768 142.752 43.346 142.355 42.9952C141.816 42.5191 141.065 42.2803 140.101 42.2803C139.292 42.2803 138.582 42.5056 137.973 42.9562C137.362 43.4069 137.058 44.012 137.058 44.7723C137.058 46.0088 137.963 46.8718 139.774 47.3607C140.159 47.4762 140.438 47.5634 140.611 47.6215C140.785 47.6796 140.961 47.7759 141.141 47.9113C141.321 48.0466 141.411 48.2046 141.411 48.3846C141.411 48.6163 141.324 48.8097 141.151 48.9642C140.978 49.1187 140.744 49.1959 140.448 49.1959C139.853 49.1959 139.443 48.9734 139.216 48.5277C139.141 48.3803 138.99 48.2882 138.825 48.2882H137.637C137.336 48.2882 137.127 48.583 137.219 48.87C137.366 49.3305 137.626 49.7479 138.001 50.1234C138.527 50.652 139.292 50.9156 140.294 50.9156C141.192 50.9156 141.94 50.6768 142.537 50.2006C143.134 49.7245 143.433 49.0804 143.433 48.2684C143.433 47.1092 142.682 46.2979 141.18 45.8345H141.18Z" fill="#979797"/>
<path fill-rule="evenodd" clip-rule="evenodd" d="M157.746 45.8274C156.988 45.6084 156.455 45.4058 156.147 45.2187C155.839 45.0324 155.685 44.8226 155.685 44.5909C155.685 44.4109 155.775 44.2565 155.955 44.1275C156.135 43.9986 156.36 43.9341 156.629 43.9341C156.989 43.9341 157.284 44.0241 157.515 44.2048C157.664 44.321 157.77 44.4535 157.834 44.6016C157.902 44.761 158.062 44.8616 158.235 44.8616H159.36C159.66 44.8616 159.876 44.5654 159.778 44.2806C159.604 43.7697 159.318 43.3389 158.921 42.9881C158.382 42.512 157.631 42.2732 156.667 42.2732C155.858 42.2732 155.148 42.4985 154.538 42.9492C153.928 43.3998 153.624 44.0049 153.624 44.7652C153.624 46.0017 154.529 46.8647 156.339 47.3536C156.724 47.4691 157.004 47.5563 157.177 47.6144C157.35 47.6725 157.527 47.7689 157.707 47.9042C157.887 48.0395 157.977 48.1975 157.977 48.3775C157.977 48.6092 157.89 48.8027 157.717 48.9571C157.544 49.1116 157.31 49.1888 157.014 49.1888C156.419 49.1888 156.009 48.9663 155.782 48.5206C155.707 48.3733 155.556 48.2811 155.391 48.2811H154.203C153.902 48.2811 153.693 48.5759 153.785 48.8629C153.932 49.3234 154.192 49.7408 154.567 50.1163C155.093 50.6449 155.858 50.9085 156.859 50.9085C157.758 50.9085 158.506 50.6697 159.103 50.1936C159.7 49.7174 159.999 49.0733 159.999 48.2613C159.999 47.1021 159.248 46.2908 157.745 45.8274H157.746Z" fill="#979797"/>
<path d="M120.437 44.2963C120.13 43.6543 119.297 42.2797 117.441 42.2797C116.751 42.2797 116.169 42.4554 115.693 42.8068C115.395 43.0265 115.142 43.3028 114.932 43.6359L114.855 42.7494C114.841 42.5957 114.713 42.4774 114.559 42.4774H113.219C113.055 42.4774 112.922 42.6106 112.922 42.775V53.7018C112.922 53.8662 113.055 53.9994 113.219 53.9994H114.665C114.829 53.9994 114.961 53.8662 114.961 53.7018V49.5921C115.166 49.9067 115.408 50.1696 115.692 50.3786C116.168 50.7301 117.524 51.4237 119.148 50.3786C119.699 50.0243 120.13 49.5283 120.437 48.8807C120.743 48.2338 120.896 47.4706 120.896 46.5927C120.896 45.7148 120.743 44.9382 120.437 44.2963ZM117.018 49.264C116.069 49.3909 114.992 48.5023 114.962 46.592C114.94 45.1968 115.816 43.9242 117.018 43.9299C118.094 43.9356 118.917 45.1968 118.917 46.597C118.917 48.068 118.217 49.1032 117.018 49.264Z" fill="#979797"/>
<path fill-rule="evenodd" clip-rule="evenodd" d="M127.333 42.2726H126.747C125.386 42.2726 124.609 43.2348 124.267 43.8073C124.247 43.8413 124.195 43.8265 124.195 43.7868V42.5751C124.195 42.4079 124.06 42.2726 123.894 42.2726H122.522C122.355 42.2726 122.22 42.4079 122.22 42.5751V50.526C122.22 50.6932 122.355 50.8285 122.522 50.8285H123.894C124.06 50.8285 124.195 50.6932 124.195 50.526V46.3837C124.195 44.2558 127.333 44.2225 127.333 44.2225C127.5 44.2225 127.635 44.0872 127.635 43.92V42.5744C127.635 42.4072 127.5 42.2719 127.333 42.2719V42.2726Z" fill="#979797"/>
</g>
<defs>
<clipPath id="clip0_11376_13455">
<rect width="160" height="54" fill="white"/>
</clipPath>
</defs>
</svg>
